<svg id="Layer_1" data-name="Layer 1" xmlns="http://www.w3.org/2000/svg" viewBox="0 0 499.27 275.38"><defs><style>.cls-1{fill:#eaae1b;}.cls-1,.cls-2,.cls-3,.cls-4,.cls-5{stroke:#fff;}.cls-1,.cls-10,.cls-2,.cls-3,.cls-4,.cls-5,.cls-6,.cls-7,.cls-8,.cls-9{stroke-miterlimit:10;}.cls-2{fill:#11b743;}.cls-3{fill:#f94ed5;}.cls-4{fill:#ef2b2b;}.cls-5{fill:#34af2b;}.cls-6{fill:#fff;stroke:#34af2b;stroke-width:9px;}.cls-10,.cls-7,.cls-8,.cls-9{fill:none;}.cls-7{stroke:#ef2b2b;stroke-width:16px;}.cls-8{stroke:#eaae1b;stroke-width:12px;}.cls-9{stroke:#11b743;stroke-width:8px;}.cls-10{stroke:#f94ed5;stroke-width:6px;}.cls-11,.cls-14{font-size:12px;font-family:MyriadPro-Regular, Myriad Pro;}.cls-12{letter-spacing:-0.01em;}.cls-13{letter-spacing:-0.01em;}.cls-14{letter-spacing:0em;}.cls-15{letter-spacing:0em;}.cls-16{letter-spacing:0em;}.cls-17{letter-spacing:-0.01em;}.cls-18{letter-spacing:-0.01em;}</style></defs><title>skills</title><rect class="cls-1" x="0.5" y="0.5" width="56.56" height="56.56"/><rect class="cls-2" x="0.5" y="57.06" width="56.56" height="41.92"/><rect class="cls-3" x="0.5" y="99.98" width="56.56" height="29.03"/><rect class="cls-4" x="0.5" y="129.55" width="56.56" height="103.41"/><rect class="cls-5" x="0.5" y="232.96" width="56.56" height="41.92"/><path class="cls-6" d="M70.17,251.45h99.18c26.23,0,162.71-70.2,211.07-70.2h45.49"/><path class="cls-7" d="M70.17,181.25h191c20.49,0,61.47-27.34,79.5-27.34h85.28"/><path class="cls-8" d="M70.17,28.78H208.29c11.47,0,38.58,52.28,52.28,52.28s83.37-.72,94,0S370.17,95.3,384.52,95.3h41.42"/><polyline class="cls-9" points="70.17 78.02 199.27 78.02 284.52 114.49 425.94 114.49"/><path class="cls-10" d="M71.81,114.49H198.86c12.3,0,51.64,21.4,63.53,23.24s163.55,0,163.55,0"/><text class="cls-11" transform="translate(23.86 30.55)">JS</text><text class="cls-11" transform="translate(9.93 78.52)"><tspan class="cls-12">p</tspan><tspan x="6.74" y="0">ython</tspan></text><text class="cls-11" transform="translate(9.93 251.45)">adobe <tspan x="0" y="14.4">sui</tspan><tspan class="cls-13" x="14.17" y="14.4">t</tspan><tspan x="18.07" y="14.4">e</tspan></text><text class="cls-14" transform="translate(6.65 183.71)">h<tspan class="cls-15" x="6.61" y="0">tml/css</tspan></text><text class="cls-11" transform="translate(9.93 117.43)">la<tspan class="cls-16" x="8.62" y="0">r</tspan><tspan class="cls-17" x="12.48" y="0">a</tspan><tspan class="cls-18" x="18.17" y="0">v</tspan><tspan x="23.82" y="0">el</tspan></text><circle cx="465.05" cy="133.2" r="34.22"/></svg>